<?xml version="1.0" encoding="UTF-8"?>
<svg width="425px" height="161px" viewBox="0 0 425 161" version="1.1" xmlns="http://www.w3.org/2000/svg" xmlns:xlink="http://www.w3.org/1999/xlink">
    <title>8511E699-3562-4DD0-87E0-2717BE8E3AF6</title>
    <defs>
        <path d="M115.556962,161 L115.556962,137.291834 L131.050633,137.291834 L131.050633,95.9103079 L115.556962,95.9103079 L115.556962,5.81927711 L64.1265823,5.81927711 L0,97.4190094 L0,137.291834 L67.3544304,137.291834 L67.3544304,161 L115.556962,161 Z M71.2278481,95.9103079 L47.9873418,95.9103079 L71.2278481,60.3480589 L71.2278481,95.9103079 Z M211.746835,160.137885 C233.552743,160.137885 249.763713,152.989514 260.379747,138.692771 C270.995781,124.396029 276.303797,104.818831 276.303797,79.961178 C276.303797,55.2472111 270.995781,35.7418563 260.379747,21.4451138 C249.763713,7.14837126 233.552743,0 211.746835,0 C189.797468,0 173.550633,7.1124498 163.006329,21.3373494 C152.462025,35.562249 147.189873,55.1035252 147.189873,79.961178 C147.189873,104.818831 152.462025,124.396029 163.006329,138.692771 C173.550633,152.989514 189.797468,160.137885 211.746835,160.137885 Z M211.746835,114.876841 C204.57384,114.876841 199.839662,111.967202 197.544304,106.147925 C195.248945,100.328648 194.101266,91.5997323 194.101266,79.961178 C194.101266,68.4663097 195.248945,59.8092369 197.544304,53.9899598 C199.839662,48.1706827 204.57384,45.2610442 211.746835,45.2610442 C218.776371,45.2610442 223.438819,48.1706827 225.734177,53.9899598 C228.029536,59.8092369 229.177215,68.4663097 229.177215,79.961178 C229.177215,91.5997323 228.029536,100.328648 225.734177,106.147925 C223.438819,111.967202 218.776371,114.876841 211.746835,114.876841 Z M409.506329,161 L409.506329,137.291834 L425,137.291834 L425,95.9103079 L409.506329,95.9103079 L409.506329,5.81927711 L358.075949,5.81927711 L293.949367,97.4190094 L293.949367,137.291834 L361.303797,137.291834 L361.303797,161 L409.506329,161 Z M365.177215,95.9103079 L341.936709,95.9103079 L365.177215,60.3480589 L365.177215,95.9103079 Z" id="path-1"></path>
    </defs>
    <g id="Page" stroke="none" stroke-width="1" fill="none" fill-rule="evenodd">
        <g id="404" transform="translate(-748.000000, -362.000000)">
            <g transform="translate(748.000000, 362.000000)">
                <mask id="mask-2" fill="white">
                    <use xlink:href="#path-1"></use>
                </mask>
                <use id="Mask" fill="#2E3034" fill-rule="nonzero" xlink:href="#path-1"></use>
            </g>
        </g>
    </g>
</svg>