<?xml version="1.0" encoding="UTF-8"?>
<svg width="743px" height="734px" viewBox="0 0 743 734" version="1.1" xmlns="http://www.w3.org/2000/svg" xmlns:xlink="http://www.w3.org/1999/xlink">
    <title>3B729AC2-A374-4ECF-96A9-BE74108AA9F8</title>
    <g id="Page" stroke="none" stroke-width="1" fill="none" fill-rule="evenodd" opacity="0.1">
        <g id="404" transform="translate(-589.000000, -123.000000)" fill="#5D6FD3" fill-rule="nonzero">
            <path d="M1257.07595,140.258055 C1305.59756,175.784761 1314.26214,272.833324 1305.59756,349.085767 C1296.93299,425.33821 1270.93927,480.794532 1280.4703,543.182894 C1290.86779,604.704751 1336.79003,672.292144 1331.59129,724.282446 C1327.259,777.139253 1270.93927,814.398969 1212.02016,823.064019 C1153.96751,831.72907 1093.31548,811.799454 1028.33117,818.731494 C964.213322,825.663534 895.763183,859.457231 826.446585,856.857716 C757.996446,854.258201 690.412763,814.398969 644.490517,754.610122 C598.568272,694.821275 574.307463,615.969317 598.568272,550.981439 C621.962623,485.127057 693.012136,434.00326 744.999584,384.612473 C796.987031,335.221687 829.045958,288.430415 874.101746,250.304194 C918.291077,213.044477 975.477269,185.316316 1048.2597,158.45466 C1121.04212,130.726499 1208.55433,104.731348 1257.07595,140.258055 Z" id="Blob"></path>
        </g>
    </g>
</svg>